<mxfile host="Electron" agent="Mozilla/5.0 (Windows NT 10.0; Win64; x64) AppleWebKit/537.36 (KHTML, like Gecko) draw.io/25.0.2 Chrome/128.0.6613.186 Electron/32.2.5 Safari/537.36" version="25.0.2">
  <diagram name="Page-1" id="ZsZY_6qja8_V6OmGRgaw">
    <mxGraphModel dx="520" dy="336" grid="1" gridSize="10" guides="1" tooltips="1" connect="1" arrows="1" fold="1" page="1" pageScale="1" pageWidth="850" pageHeight="1100" math="0" shadow="0">
      <root>
        <mxCell id="0" />
        <mxCell id="1" parent="0" />
        <mxCell id="XJK0FdbhuMoN5WaEMx37-1" value="Symboles" style="swimlane;whiteSpace=wrap;html=1;fillColor=none;" vertex="1" parent="1">
          <mxGeometry x="80" y="30" width="530" height="600" as="geometry" />
        </mxCell>
        <mxCell id="XJK0FdbhuMoN5WaEMx37-2" value="&lt;font style=&quot;font-size: 11px;&quot;&gt;ObjectName&lt;/font&gt;" style="rounded=0;whiteSpace=wrap;html=1;align=center;fillColor=none;" vertex="1" parent="XJK0FdbhuMoN5WaEMx37-1">
          <mxGeometry x="390" y="40" width="80" height="20" as="geometry" />
        </mxCell>
        <mxCell id="XJK0FdbhuMoN5WaEMx37-3" value="&lt;b&gt;Rectangle &lt;/b&gt;represent internal object of the software." style="text;html=1;align=left;verticalAlign=middle;whiteSpace=wrap;rounded=0;" vertex="1" parent="XJK0FdbhuMoN5WaEMx37-1">
          <mxGeometry x="30" y="50" width="280" height="30" as="geometry" />
        </mxCell>
        <mxCell id="XJK0FdbhuMoN5WaEMx37-9" value="actorName" style="shape=umlActor;verticalLabelPosition=bottom;verticalAlign=top;html=1;" vertex="1" parent="XJK0FdbhuMoN5WaEMx37-1">
          <mxGeometry x="420" y="100" width="20" height="35" as="geometry" />
        </mxCell>
        <mxCell id="XJK0FdbhuMoN5WaEMx37-11" value="" style="endArrow=open;endSize=7;html=1;rounded=0;" edge="1" parent="XJK0FdbhuMoN5WaEMx37-1">
          <mxGeometry width="160" relative="1" as="geometry">
            <mxPoint x="380" y="330" as="sourcePoint" />
            <mxPoint x="480" y="330" as="targetPoint" />
          </mxGeometry>
        </mxCell>
        <mxCell id="XJK0FdbhuMoN5WaEMx37-12" value="" style="endArrow=open;endSize=7;html=1;rounded=0;dashed=1;" edge="1" parent="XJK0FdbhuMoN5WaEMx37-1">
          <mxGeometry width="160" relative="1" as="geometry">
            <mxPoint x="480" y="393" as="sourcePoint" />
            <mxPoint x="380" y="393" as="targetPoint" />
          </mxGeometry>
        </mxCell>
        <mxCell id="XJK0FdbhuMoN5WaEMx37-22" value="" style="endArrow=open;endSize=7;html=1;rounded=0;entryX=0;entryY=0.5;entryDx=0;entryDy=0;" edge="1" parent="XJK0FdbhuMoN5WaEMx37-1" target="XJK0FdbhuMoN5WaEMx37-23">
          <mxGeometry width="160" relative="1" as="geometry">
            <mxPoint x="370" y="470" as="sourcePoint" />
            <mxPoint x="450" y="440" as="targetPoint" />
          </mxGeometry>
        </mxCell>
        <mxCell id="XJK0FdbhuMoN5WaEMx37-23" value="&lt;font style=&quot;font-size: 11px;&quot;&gt;ObjectName&lt;/font&gt;" style="rounded=0;whiteSpace=wrap;html=1;align=center;fillColor=none;" vertex="1" parent="XJK0FdbhuMoN5WaEMx37-1">
          <mxGeometry x="420" y="460" width="80" height="20" as="geometry" />
        </mxCell>
        <mxCell id="XJK0FdbhuMoN5WaEMx37-24" value="" style="endArrow=none;endSize=7;html=1;rounded=0;dashed=1;endFill=0;exitX=0.5;exitY=0;exitDx=0;exitDy=0;" edge="1" parent="XJK0FdbhuMoN5WaEMx37-1" source="XJK0FdbhuMoN5WaEMx37-26">
          <mxGeometry width="160" relative="1" as="geometry">
            <mxPoint x="430" y="260" as="sourcePoint" />
            <mxPoint x="429.62" y="190" as="targetPoint" />
          </mxGeometry>
        </mxCell>
        <mxCell id="XJK0FdbhuMoN5WaEMx37-26" value="X" style="text;html=1;align=center;verticalAlign=middle;whiteSpace=wrap;rounded=0;" vertex="1" parent="XJK0FdbhuMoN5WaEMx37-1">
          <mxGeometry x="420" y="260" width="20" height="10" as="geometry" />
        </mxCell>
        <mxCell id="XJK0FdbhuMoN5WaEMx37-34" value="&lt;font style=&quot;font-size: 10px;&quot;&gt;messageName&lt;/font&gt;" style="text;html=1;align=center;verticalAlign=middle;whiteSpace=wrap;rounded=0;" vertex="1" parent="XJK0FdbhuMoN5WaEMx37-1">
          <mxGeometry x="390" y="310" width="80" height="10" as="geometry" />
        </mxCell>
        <mxCell id="XJK0FdbhuMoN5WaEMx37-35" value="&lt;font style=&quot;font-size: 10px;&quot;&gt;returnName&lt;/font&gt;" style="text;html=1;align=center;verticalAlign=middle;whiteSpace=wrap;rounded=0;" vertex="1" parent="XJK0FdbhuMoN5WaEMx37-1">
          <mxGeometry x="390" y="376" width="80" height="10" as="geometry" />
        </mxCell>
        <mxCell id="XJK0FdbhuMoN5WaEMx37-36" value="&lt;b&gt;Stick figures&lt;/b&gt; represent external actor&lt;div&gt;(people interacting with the software, external software and hardware).&lt;/div&gt;" style="text;html=1;align=left;verticalAlign=middle;whiteSpace=wrap;rounded=0;" vertex="1" parent="XJK0FdbhuMoN5WaEMx37-1">
          <mxGeometry x="30" y="100" width="279" height="45" as="geometry" />
        </mxCell>
        <mxCell id="XJK0FdbhuMoN5WaEMx37-37" value="&lt;b&gt;Vertical dotted line &lt;/b&gt;are life line that represents the time span of an object/actor&amp;nbsp;&lt;span style=&quot;background-color: initial;&quot;&gt;its life ends with an &lt;/span&gt;&lt;b style=&quot;background-color: initial;&quot;&gt;X.&lt;/b&gt;" style="text;html=1;align=left;verticalAlign=top;whiteSpace=wrap;rounded=0;" vertex="1" parent="XJK0FdbhuMoN5WaEMx37-1">
          <mxGeometry x="30" y="200" width="280" height="40" as="geometry" />
        </mxCell>
        <mxCell id="XJK0FdbhuMoN5WaEMx37-38" value="To send a message between an object/actor, we use a &lt;strong&gt;solid line arrow&lt;/strong&gt; labeled with the message name." style="text;html=1;align=left;verticalAlign=top;whiteSpace=wrap;rounded=0;" vertex="1" parent="XJK0FdbhuMoN5WaEMx37-1">
          <mxGeometry x="30" y="300" width="270" height="50" as="geometry" />
        </mxCell>
        <mxCell id="XJK0FdbhuMoN5WaEMx37-39" value="To send a return message between an object/actor, we use a &lt;strong&gt;dotted line arrow&lt;/strong&gt; labeled with the return value or acknowledgment." style="text;html=1;align=left;verticalAlign=top;whiteSpace=wrap;rounded=0;" vertex="1" parent="XJK0FdbhuMoN5WaEMx37-1">
          <mxGeometry x="30" y="370" width="270" height="50" as="geometry" />
        </mxCell>
        <mxCell id="XJK0FdbhuMoN5WaEMx37-40" value="&lt;span style=&quot;font-size: 10px;&quot;&gt;creation&lt;/span&gt;" style="text;html=1;align=center;verticalAlign=middle;whiteSpace=wrap;rounded=0;" vertex="1" parent="XJK0FdbhuMoN5WaEMx37-1">
          <mxGeometry x="350" y="455" width="80" height="10" as="geometry" />
        </mxCell>
        <mxCell id="XJK0FdbhuMoN5WaEMx37-41" value="To create an object , we use a &lt;b&gt;solid&lt;/b&gt;&lt;strong&gt;&amp;nbsp;line arrow&lt;/strong&gt;&amp;nbsp;labeled with Creation , pointing to the newly created object." style="text;html=1;align=left;verticalAlign=top;whiteSpace=wrap;rounded=0;" vertex="1" parent="XJK0FdbhuMoN5WaEMx37-1">
          <mxGeometry x="30" y="440" width="270" height="50" as="geometry" />
        </mxCell>
        <mxCell id="XJK0FdbhuMoN5WaEMx37-27" value="" style="html=1;points=[[0,0,0,0,5],[0,1,0,0,-5],[1,0,0,0,5],[1,1,0,0,-5]];perimeter=orthogonalPerimeter;outlineConnect=0;targetShapes=umlLifeline;portConstraint=eastwest;newEdgeStyle={&quot;curved&quot;:0,&quot;rounded&quot;:0};" vertex="1" parent="XJK0FdbhuMoN5WaEMx37-1">
          <mxGeometry x="460" y="520" width="10" height="50" as="geometry" />
        </mxCell>
        <mxCell id="XJK0FdbhuMoN5WaEMx37-43" value="&lt;font style=&quot;font-size: 10px;&quot;&gt;Self&lt;br&gt;&lt;/font&gt;&lt;div&gt;&lt;font style=&quot;font-size: 10px;&quot;&gt;Call&lt;/font&gt;&lt;/div&gt;" style="html=1;align=left;spacingLeft=2;endArrow=open;rounded=0;edgeStyle=orthogonalEdgeStyle;curved=0;rounded=0;endFill=0;exitX=1;exitY=0;exitDx=0;exitDy=5;exitPerimeter=0;" edge="1" target="XJK0FdbhuMoN5WaEMx37-27" parent="XJK0FdbhuMoN5WaEMx37-1" source="XJK0FdbhuMoN5WaEMx37-27">
          <mxGeometry relative="1" as="geometry">
            <mxPoint x="440" y="610" as="sourcePoint" />
            <Array as="points">
              <mxPoint x="490" y="525" />
              <mxPoint x="490" y="560" />
            </Array>
            <mxPoint x="480" y="560" as="targetPoint" />
          </mxGeometry>
        </mxCell>
        <mxCell id="XJK0FdbhuMoN5WaEMx37-45" value="A &lt;strong&gt;horizontal rectangle&lt;/strong&gt; represents the activation of an object or actor, indicating when it is performing a task. During this time, the object can send messages, receive responses, and make self-calls." style="text;html=1;align=left;verticalAlign=top;whiteSpace=wrap;rounded=0;" vertex="1" parent="XJK0FdbhuMoN5WaEMx37-1">
          <mxGeometry x="30" y="510" width="270" height="80" as="geometry" />
        </mxCell>
        <mxCell id="XJK0FdbhuMoN5WaEMx37-47" value="&lt;font style=&quot;font-size: 10px;&quot;&gt;Destruction&lt;/font&gt;" style="text;html=1;align=center;verticalAlign=middle;whiteSpace=wrap;rounded=0;fillColor=default;" vertex="1" parent="XJK0FdbhuMoN5WaEMx37-1">
          <mxGeometry x="400" y="232" width="60" height="10" as="geometry" />
        </mxCell>
        <mxCell id="XJK0FdbhuMoN5WaEMx37-28" value="&lt;font style=&quot;font-size: 9px;&quot;&gt;sendingMessage&lt;/font&gt;" style="html=1;verticalAlign=bottom;endArrow=open;curved=0;rounded=0;entryX=0;entryY=0;entryDx=0;entryDy=5;endFill=0;" edge="1" target="XJK0FdbhuMoN5WaEMx37-27" parent="1">
          <mxGeometry relative="1" as="geometry">
            <mxPoint x="460" y="555" as="sourcePoint" />
          </mxGeometry>
        </mxCell>
        <mxCell id="XJK0FdbhuMoN5WaEMx37-29" value="&lt;font style=&quot;font-size: 9px;&quot;&gt;returnMessage&lt;/font&gt;" style="html=1;verticalAlign=bottom;endArrow=open;dashed=1;endSize=8;curved=0;rounded=0;exitX=0;exitY=1;exitDx=0;exitDy=-5;" edge="1" source="XJK0FdbhuMoN5WaEMx37-27" parent="1">
          <mxGeometry relative="1" as="geometry">
            <mxPoint x="460" y="595" as="targetPoint" />
          </mxGeometry>
        </mxCell>
      </root>
    </mxGraphModel>
  </diagram>
</mxfile>
